<?xml version="1.0" encoding="utf-8"?>
<!-- Generator: Adobe Illustrator 21.0.2, SVG Export Plug-In . SVG Version: 6.00 Build 0)  -->
<svg version="1.1" id="Layer_1" xmlns="http://www.w3.org/2000/svg" xmlns:xlink="http://www.w3.org/1999/xlink" x="0px" y="0px"
	 viewBox="0 0 466 58.2" style="enable-background:new 0 0 466 58.2;" xml:space="preserve">
<style type="text/css">
	.st0{opacity:0.33;fill:#FFFFFF;}
</style>
<title>battenberg-svg</title>
<rect class="st0" width="29.1" height="29.1"/>
<title>battenberg-svg</title>
<rect x="29.1" y="29.1" class="st0" width="29.1" height="29.1"/>
<rect x="58.2" class="st0" width="29.1" height="29.1"/>
<rect x="87.4" y="29.1" class="st0" width="29.1" height="29.1"/>
<rect x="116.5" y="0" class="st0" width="29.1" height="29.1"/>
<rect x="145.6" y="29.1" class="st0" width="29.1" height="29.1"/>
<rect x="174.8" y="0" class="st0" width="29.1" height="29.1"/>
<rect x="203.9" y="29.1" class="st0" width="29.1" height="29.1"/>
<rect x="233" class="st0" width="29.1" height="29.1"/>
<rect x="262.1" y="29.1" class="st0" width="29.1" height="29.1"/>
<rect x="291.2" class="st0" width="29.1" height="29.1"/>
<rect x="320.4" y="29.1" class="st0" width="29.1" height="29.1"/>
<rect x="349.5" class="st0" width="29.1" height="29.1"/>
<rect x="378.6" y="29.1" class="st0" width="29.1" height="29.1"/>
<rect x="407.8" class="st0" width="29.1" height="29.1"/>
<rect x="436.9" y="29.1" class="st0" width="29.1" height="29.1"/>
<rect y="29.1" class="st0" width="2.6" height="29.1"/>
<rect x="463.4" class="st0" width="2.6" height="29.1"/>
</svg>
